<?xml version="1.0" standalone="no"?>
<!DOCTYPE svg PUBLIC "-//W3C//DTD SVG 20010904//EN"
 "http://www.w3.org/TR/2001/REC-SVG-20010904/DTD/svg10.dtd">
<svg version="1.0" xmlns="http://www.w3.org/2000/svg"
 width="434.000000pt" height="434.000000pt" viewBox="0 0 434.000000 434.000000"
 preserveAspectRatio="xMidYMid meet">
<metadata>
Created by potrace 1.14, written by Peter Selinger 2001-2017
</metadata>
<g transform="translate(0.000000,434.000000) scale(0.100000,-0.100000)"
fill="#000000" stroke="none">
<path d="M375 3826 c-96 -23 -164 -63 -239 -138 -56 -57 -79 -89 -102 -143
l-29 -70 -3 -1323 -2 -1322 25 -54 c14 -30 53 -83 88 -119 63 -65 105 -92 206
-130 56 -21 57 -21 1741 -24 1103 -3 1721 0 1788 6 237 24 419 155 464 335 16
66 18 155 18 1304 0 1442 7 1335 -101 1483 -72 97 -199 175 -325 198 -88 17
-3462 13 -3529 -3z m3592 -309 c24 -15 55 -46 70 -69 l28 -42 0 -1241 c0
-1193 -1 -1242 -19 -1269 -30 -47 -69 -87 -101 -105 -28 -15 -173 -16 -1780
-16 -1637 0 -1752 1 -1781 17 -41 22 -90 71 -112 112 -16 29 -17 117 -17 1272
l0 1241 27 35 c31 41 86 77 132 89 17 4 814 6 1771 6 l1740 -2 42 -28z"/>
<path d="M432 3429 c-20 -6 -40 -22 -52 -42 -19 -31 -20 -58 -20 -1217 0
-1108 1 -1187 18 -1220 10 -20 32 -42 52 -52 33 -17 136 -18 1733 -18 1419 0
1703 2 1731 14 70 29 66 -51 66 1271 l0 1188 -21 34 c-12 19 -33 39 -46 44
-33 12 -3417 10 -3461 -2z m498 -369 l0 -90 45 0 45 0 0 90 0 90 110 0 110 0
0 -90 0 -90 50 0 50 0 0 90 0 90 105 0 105 0 0 -148 0 -148 -50 -49 -50 -49 0
-238 0 -238 190 0 190 0 0 76 0 76 -50 58 -50 58 0 151 0 151 105 0 105 0 0
-85 0 -85 45 0 45 0 0 85 0 85 115 0 115 0 0 -85 0 -85 50 0 50 0 0 85 0 85
115 0 115 0 0 -154 0 -154 -65 -57 -65 -57 0 -74 0 -74 195 0 195 0 0 239 0
239 -55 47 -55 47 0 149 0 149 100 0 100 0 0 -90 0 -90 60 0 60 0 0 90 0 90
100 0 100 0 0 -90 0 -90 65 0 65 0 0 90 0 90 95 0 95 0 0 -146 0 -146 -50 -58
-50 -58 0 -543 0 -544 55 -44 55 -44 0 -168 0 -169 -1440 0 -1440 0 0 164 0
165 60 52 60 52 0 543 0 542 -60 52 -60 52 0 149 0 149 110 0 110 0 0 -90z"/>
<path d="M1080 2465 l0 -205 65 0 65 0 0 205 0 205 -65 0 -65 0 0 -205z"/>
<path d="M3120 2465 l0 -205 65 0 65 0 0 205 0 205 -65 0 -65 0 0 -205z"/>
<path d="M2040 2042 c-61 -40 -84 -67 -117 -137 -28 -60 -28 -62 -31 -292 l-3
-233 271 0 271 0 -3 238 -3 237 -36 76 c-31 65 -43 80 -85 104 -41 25 -62 29
-134 32 -80 4 -88 2 -130 -25z"/>
<path d="M1080 1740 l0 -200 65 0 65 0 0 200 0 200 -65 0 -65 0 0 -200z"/>
<path d="M1560 1780 l0 -160 65 0 65 0 0 160 0 160 -65 0 -65 0 0 -160z"/>
<path d="M2640 1780 l0 -160 65 0 65 0 0 160 0 160 -65 0 -65 0 0 -160z"/>
<path d="M3120 1740 l0 -200 65 0 65 0 0 200 0 200 -65 0 -65 0 0 -200z"/>
</g>
</svg>
